<svg width="40" height="40" viewBox="0 0 40 40" fill="none" xmlns="http://www.w3.org/2000/svg">
<path d="M20.0001 0C14.6974 0.00547996 9.61356 2.11437 5.86403 5.8639C2.11449 9.61344 0.00560203 14.6973 0.00012207 20C0.00012207 25.3437 2.07908 30.3652 5.8555 34.1416C7.70853 36.0051 9.91285 37.4824 12.3408 38.488C14.7688 39.4936 17.3721 40.0075 20.0001 39.9999C25.3027 39.9944 30.3866 37.8855 34.1361 34.136C37.8857 30.3865 39.9946 25.3026 40 20C39.9946 14.6973 37.8857 9.61344 34.1361 5.8639C30.3866 2.11437 25.3027 0.00547996 20.0001 0ZM7.9108 34.0115C9.2931 32.2131 11.0637 30.7501 13.0904 29.7316C15.1171 28.7131 17.3477 28.1654 19.6156 28.1295C19.6866 28.1324 19.7546 28.1502 19.8256 28.1502H19.8936C19.9587 28.1502 20.0178 28.1324 20.0829 28.1295C22.3822 28.1686 24.642 28.7343 26.6885 29.7832C28.7351 30.8321 30.5139 32.3363 31.8883 34.18C28.563 36.9864 24.3513 38.5244 20.0001 38.5213C15.5576 38.5292 11.2627 36.9271 7.9108 34.0115ZM19.8345 26.6361C19.7605 26.6361 19.6896 26.6479 19.6156 26.6508C17.8895 26.5923 16.2543 25.8629 15.0575 24.6176C13.8608 23.3723 13.197 21.7093 13.2073 19.9822C13.2103 19.108 13.386 18.2429 13.7241 17.4367C14.0623 16.6305 14.5562 15.899 15.1777 15.2841C15.7992 14.6692 16.536 14.1831 17.3457 13.8536C18.1555 13.524 19.0224 13.3576 19.8966 13.3639C20.7708 13.367 21.6359 13.5426 22.4421 13.8807C23.2483 14.2189 23.9798 14.7129 24.5947 15.3343C25.2096 15.9558 25.6957 16.6926 26.0252 17.5023C26.3547 18.3121 26.5212 19.179 26.5149 20.0532C26.5149 23.6374 23.6464 26.5503 20.0858 26.6538C20.003 26.6508 19.9202 26.6361 19.8345 26.6361ZM32.9854 33.1864C30.6987 30.1687 27.4461 28.0268 23.7706 27.1181C25.0496 26.4173 26.1165 25.3853 26.8595 24.1303C27.6025 22.8753 27.9942 21.4436 27.9936 19.9852C27.9901 18.9169 27.7759 17.8597 27.3633 16.8743C26.9507 15.8889 26.3478 14.9945 25.5891 14.2424C24.8304 13.4903 23.9308 12.8952 22.9418 12.4913C21.9529 12.0873 20.8939 11.8824 19.8256 11.8882C18.7573 11.8917 17.7002 12.1058 16.7147 12.5184C15.7293 12.931 14.8349 13.5339 14.0828 14.2926C13.3307 15.0513 12.7357 15.9509 12.3317 16.9399C11.9277 17.9289 11.7228 18.9878 11.7286 20.0561C11.7341 21.5009 12.1271 22.9178 12.8668 24.1589C13.6065 25.4001 14.6657 26.4199 15.9338 27.1122C12.3204 27.9997 9.11091 30.0779 6.82252 33.0119C3.39022 29.5548 1.46947 24.8774 1.48171 20.0059C1.48719 15.0954 3.4403 10.3876 6.91253 6.91537C10.3848 3.44313 15.0926 1.49002 20.003 1.48455C24.9135 1.49002 29.6213 3.44313 33.0935 6.91537C36.5658 10.3876 38.5189 15.0954 38.5244 20.0059C38.5231 22.4607 38.0326 24.8906 37.0816 27.1537C36.1306 29.4167 34.7381 31.4676 32.9854 33.1864Z" fill="white"/>
</svg>
